# Blender v2.92.0 OBJ File: 'kosticka.blend'
# www.blender.org
o Cube
v 1.411221 1.411221 -2.254181
v 1.411221 2.254181 -1.411221
v 2.254181 1.411221 -1.411221
v 1.411221 -2.254181 -1.411221
v 1.411221 -1.411221 -2.254181
v 2.254181 -1.411221 -1.411221
v 2.254181 1.411221 1.411221
v 1.411221 2.254181 1.411221
v 1.411221 1.411221 2.254181
v 2.254181 -1.411221 1.411221
v 1.411221 -1.411221 2.254181
v 1.411221 -2.254181 1.411221
v -1.411221 1.411221 -2.254181
v -2.254181 1.411221 -1.411221
v -1.411221 2.254181 -1.411221
v -2.254181 -1.411221 -1.411221
v -1.411221 -1.411221 -2.254181
v -1.411221 -2.254181 -1.411221
v -2.254181 1.411221 1.411221
v -1.411221 1.411221 2.254181
v -1.411221 2.254181 1.411221
v -1.411221 -2.254181 1.411221
v -1.411221 -1.411221 2.254181
v -2.254181 -1.411221 1.411221
vt 0.001001 0.001001
vt 0.248999 0.248999
vt 0.248999 0.001001
vt 0.001001 0.251001
vt 0.248999 0.498999
vt 0.248999 0.251001
vt 0.251001 0.001001
vt 0.498999 0.248999
vt 0.498999 0.001001
vt 0.251001 0.251001
vt 0.498999 0.498999
vt 0.498999 0.251001
vt 0.001001 0.501001
vt 0.248999 0.748999
vt 0.248999 0.501001
vt 0.002002 0.998999
vt 0.123999 0.998999
vt 0.123999 0.877002
vt 0.502002 0.873999
vt 0.623999 0.873999
vt 0.623999 0.752002
vt 0.627002 0.873999
vt 0.748999 0.873999
vt 0.748999 0.752002
vt 0.752002 0.873999
vt 0.873999 0.873999
vt 0.873999 0.752002
vt 0.872998 0.751001
vt 0.751001 0.751001
vt 0.751001 0.872998
vt 0.747998 0.751001
vt 0.626001 0.751001
vt 0.626001 0.872998
vt 0.622998 0.751001
vt 0.501001 0.751001
vt 0.501001 0.872998
vt 0.122998 0.876001
vt 0.001001 0.876001
vt 0.001001 0.997998
vt 0.748999 0.251001
vt 0.626001 0.498999
vt 0.748999 0.498999
vt 0.498999 0.623999
vt 0.251001 0.501001
vt 0.251001 0.623999
vt 0.623999 0.251001
vt 0.501001 0.498999
vt 0.623999 0.498999
vt 0.498999 0.748999
vt 0.251001 0.626001
vt 0.251001 0.748999
vt 0.998999 0.001001
vt 0.876001 0.248999
vt 0.998999 0.248999
vt 0.748999 0.623999
vt 0.501001 0.501001
vt 0.501001 0.623999
vt 0.873999 0.001001
vt 0.751001 0.248999
vt 0.873999 0.248999
vt 0.748999 0.748999
vt 0.501001 0.626001
vt 0.501001 0.748999
vt 0.873999 0.251001
vt 0.751001 0.498999
vt 0.873999 0.498999
vt 0.248999 0.873999
vt 0.001001 0.751001
vt 0.001001 0.873999
vt 0.873999 0.501001
vt 0.751001 0.748999
vt 0.873999 0.748999
vt 0.498999 0.873999
vt 0.251001 0.751001
vt 0.251001 0.873999
vt 0.501001 0.001001
vt 0.748999 0.248999
vt 0.748999 0.001001
vt 0.001001 0.248999
vt 0.001001 0.498999
vt 0.251001 0.248999
vt 0.251001 0.498999
vt 0.001001 0.748999
vt 0.626001 0.251001
vt 0.498999 0.501001
vt 0.501001 0.251001
vt 0.498999 0.626001
vt 0.876001 0.001001
vt 0.748999 0.501001
vt 0.751001 0.001001
vt 0.748999 0.626001
vt 0.751001 0.251001
vt 0.248999 0.751001
vt 0.751001 0.501001
vt 0.498999 0.751001
vt 0.501001 0.248999
vn 0.0000 -1.0000 0.0000
vn -1.0000 0.0000 0.0000
vn 0.0000 0.0000 1.0000
vn 0.0000 1.0000 0.0000
vn 1.0000 0.0000 0.0000
vn 0.5774 0.5774 -0.5774
vn 0.5774 -0.5774 -0.5774
vn 0.5774 0.5774 0.5774
vn 0.5774 -0.5774 0.5774
vn -0.5774 0.5774 -0.5774
vn -0.5774 -0.5774 -0.5774
vn -0.5774 0.5774 0.5774
vn -0.5774 -0.5774 0.5774
vn -0.7071 -0.7071 0.0000
vn 0.0000 -0.7071 -0.7071
vn 0.7071 0.0000 -0.7071
vn -0.7071 0.0000 0.7071
vn 0.7071 0.0000 0.7071
vn -0.7071 0.0000 -0.7071
vn 0.0000 0.7071 0.7071
vn 0.7071 0.7071 0.0000
vn 0.0000 -0.7071 0.7071
vn -0.7071 0.7071 0.0000
vn 0.0000 0.7071 -0.7071
vn 0.7071 -0.7071 0.0000
vn 0.0000 0.0000 -1.0000
s off
f 4/1/1 22/2/1 18/3/1
f 19/4/2 16/5/2 24/6/2
f 9/7/3 23/8/3 11/9/3
f 15/10/4 8/11/4 2/12/4
f 3/13/5 10/14/5 6/15/5
f 1/16/6 2/17/6 3/18/6
f 4/19/7 5/20/7 6/21/7
f 7/22/8 8/23/8 9/24/8
f 10/25/9 11/26/9 12/27/9
f 13/28/10 14/29/10 15/30/10
f 16/31/11 17/32/11 18/33/11
f 19/34/12 20/35/12 21/36/12
f 22/37/13 23/38/13 24/39/13
f 22/40/14 16/41/14 18/42/14
f 18/43/15 5/44/15 4/45/15
f 6/46/16 1/47/16 3/48/16
f 20/49/17 24/50/17 23/51/17
f 11/52/18 7/53/18 9/54/18
f 17/55/19 14/56/19 13/57/19
f 21/58/20 9/59/20 8/60/20
f 8/61/21 3/62/21 2/63/21
f 12/64/22 23/65/22 22/66/22
f 15/67/23 19/68/23 21/69/23
f 2/70/24 13/71/24 15/72/24
f 4/73/25 10/74/25 12/75/25
f 13/76/26 5/77/26 17/78/26
f 4/1/1 12/79/1 22/2/1
f 19/4/2 14/80/2 16/5/2
f 9/7/3 20/81/3 23/8/3
f 15/10/4 21/82/4 8/11/4
f 3/13/5 7/83/5 10/14/5
f 22/40/14 24/84/14 16/41/14
f 18/43/15 17/85/15 5/44/15
f 6/46/16 5/86/16 1/47/16
f 20/49/17 19/87/17 24/50/17
f 11/52/18 10/88/18 7/53/18
f 17/55/19 16/89/19 14/56/19
f 21/58/20 20/90/20 9/59/20
f 8/61/21 7/91/21 3/62/21
f 12/64/22 11/92/22 23/65/22
f 15/67/23 14/93/23 19/68/23
f 2/70/24 1/94/24 13/71/24
f 4/73/25 6/95/25 10/74/25
f 13/76/26 1/96/26 5/77/26
